# xmcd
#
# Track frame offsets:
#	150
#	25804
#	45260
#	71073
#	87352
#	104107
#	126596
#	145932
#	162316
#	186406
#	206033
#	225539
#	244356
#	270440
#	288994
#
# Disc length: 4135 seconds
#
# Revision: 2
# Processed by: cddbd v1.5.2PL0 Copyright (c) Steve Scherf et al.
# Submitted via: EasyCDDAExtractor 15.2.5.1
#
DISCID=e410250f
DTITLE=王菲 - 特別收錄港日精選
DYEAR=1999
DGENRE=Alternative
TTITLE0=Eyes on lle fcanued in fnid fanta VIII
TTITLE1=Composer :jin lau
TTITLE2=Eyes on ,he fcanued in fnid fanyasu
TTITLE3=半途而發
TTITLE4=你快樂
TTITLE5=悶
TTITLE6=色誡
TTITLE7=我也不想這樣
TTITLE8=臉
TTITLE9=麻醉
TTITLE10=感情生活
TTITLE11=人間
TTITLE12=红豆
TTITLE13=醒不來
TTITLE14=飛
EXTD=
EXTT0=
EXTT1=
EXTT2=
EXTT3=
EXTT4=
EXTT5=
EXTT6=
EXTT7=
EXTT8=
EXTT9=
EXTT10=
EXTT11=
EXTT12=
EXTT13=
EXTT14=
PLAYORDER=
